<?xml version="1.0" encoding="UTF-8"?>
<svg width="1351px" height="512px" viewBox="0 0 1351 512" version="1.1" xmlns="http://www.w3.org/2000/svg" xmlns:xlink="http://www.w3.org/1999/xlink" style="background: #0054A6;">
    <title>GM-Foodservice</title>
    <g id="Page-1" stroke="none" stroke-width="1" fill="none" fill-rule="evenodd">
        <g id="GM-Foodservice" fill-rule="nonzero">
            <g id="Group" transform="translate(415.000000, 315.000000)" fill="#FFFFFF">
                <polygon id="Path" points="0.94 1.86 67.78 1.86 67.78 19.42 20.25 19.42 20.25 38.11 62.13 38.11 62.13 55.67 20.25 55.67 20.25 89.65 0.94 89.65"></polygon>
                <path d="M79.33,46 L79.33,45.75 C79.33,20.79 99.02,0.35 126.11,0.35 C153.2,0.35 172.64,20.54 172.64,45.5 L172.64,45.75 C172.64,70.7 152.95,91.15 125.86,91.15 C98.77,91.15 79.33,70.96 79.33,46 L79.33,46 Z M152.44,46 L152.44,45.75 C152.44,30.7 141.41,18.16 125.85,18.16 C110.29,18.16 99.51,30.45 99.51,45.5 L99.51,45.75 C99.51,60.8 110.55,73.34 126.1,73.34 C141.65,73.34 152.44,61.05 152.44,46 Z" id="Shape"></path>
                <path d="M185.94,46 L185.94,45.75 C185.94,20.79 205.63,0.35 232.72,0.35 C259.81,0.35 279.25,20.54 279.25,45.5 L279.25,45.75 C279.25,70.7 259.56,91.15 232.47,91.15 C205.38,91.15 185.95,70.96 185.95,46 L185.94,46 Z M259.05,46 L259.05,45.75 C259.05,30.7 248.01,18.16 232.46,18.16 C216.91,18.16 206.12,30.45 206.12,45.5 L206.12,45.75 C206.12,60.8 217.16,73.34 232.71,73.34 C248.26,73.34 259.05,61.05 259.05,46 Z" id="Shape"></path>
                <path d="M296.43,1.86 L330.67,1.86 C358.26,1.86 377.32,20.8 377.32,45.5 L377.32,45.75 C377.32,70.46 358.26,89.64 330.67,89.64 L296.43,89.64 L296.43,1.85 L296.43,1.86 Z M315.74,19.29 L315.74,72.21 L330.66,72.21 C346.46,72.21 357.12,61.55 357.12,46 L357.12,45.75 C357.12,30.2 346.46,19.29 330.66,19.29 L315.74,19.29 L315.74,19.29 Z" id="Shape"></path>
                <path d="M387.23,76.85 L398.64,63.18 C406.54,69.7 414.82,73.84 424.85,73.84 C432.75,73.84 437.52,70.7 437.52,65.56 L437.52,65.31 C437.52,60.42 434.51,57.91 419.84,54.15 C402.16,49.64 390.75,44.74 390.75,27.31 L390.75,27.06 C390.75,11.13 403.54,0.6 421.47,0.6 C434.26,0.6 445.17,4.61 454.08,11.76 L444.05,26.31 C436.27,20.92 428.62,17.66 421.23,17.66 C413.84,17.66 409.94,21.05 409.94,25.31 L409.94,25.56 C409.94,31.33 413.7,33.21 428.88,37.1 C446.69,41.74 456.72,48.13 456.72,63.43 L456.72,63.68 C456.72,81.11 443.43,90.89 424.49,90.89 C411.2,90.89 397.78,86.25 387.24,76.84 L387.23,76.85 Z" id="Path"></path>
                <polygon id="Path" points="473.52 1.86 539.74 1.86 539.74 19.04 492.71 19.04 492.71 36.85 534.09 36.85 534.09 54.03 492.71 54.03 492.71 72.47 540.37 72.47 540.37 89.65 473.53 89.65 473.53 1.86"></polygon>
                <path d="M557.55,1.86 L597.68,1.86 C608.84,1.86 617.49,5 623.26,10.77 C628.15,15.66 630.78,22.56 630.78,30.84 L630.78,31.09 C630.78,45.26 623.13,54.16 611.97,58.3 L633.41,89.65 L610.84,89.65 L592.03,61.56 L576.86,61.56 L576.86,89.65 L557.55,89.65 L557.55,1.86 L557.55,1.86 Z M596.42,44.5 C605.83,44.5 611.22,39.49 611.22,32.09 L611.22,31.84 C611.22,23.57 605.45,19.3 596.05,19.3 L576.86,19.3 L576.86,44.51 L596.42,44.51 L596.42,44.5 Z" id="Shape"></path>
                <polygon id="Path" points="638.2 1.86 659.52 1.86 682.47 63.69 705.42 1.86 726.24 1.86 690.75 90.27 673.69 90.27"></polygon>
                <polygon id="Path" points="737.53 1.86 756.84 1.86 756.84 89.65 737.53 89.65"></polygon>
                <path d="M773.65,46 L773.65,45.75 C773.65,20.79 792.46,0.35 819.42,0.35 C835.97,0.35 845.88,5.87 854.03,13.89 L841.74,28.06 C834.97,21.91 828.07,18.15 819.29,18.15 C804.49,18.15 793.83,30.44 793.83,45.49 L793.83,45.74 C793.83,60.79 804.24,73.33 819.29,73.33 C829.32,73.33 835.47,69.32 842.36,63.05 L854.65,75.46 C845.62,85.12 835.59,91.14 818.66,91.14 C792.83,91.14 773.64,71.2 773.64,45.99 L773.65,46 Z" id="Path"></path>
                <polygon id="Path" points="868.84 1.86 935.06 1.86 935.06 19.04 888.03 19.04 888.03 36.85 929.41 36.85 929.41 54.03 888.03 54.03 888.03 72.47 935.69 72.47 935.69 89.65 868.85 89.65 868.85 1.86"></polygon>
            </g>
            <g id="Group">
                <path d="M213.62,244.41 C208.92,257.41 203.82,270.29 199.26,283.35 C213.67,290.14 228.6,297.13 239.93,308.71 C232.82,326.83 225.71,344.94 218.32,362.94 C207.13,351.87 194.1,342.48 179.38,336.76 C171.41,357.92 163.59,379.13 155.75,400.34 C135.26,400.38 114.77,400.37 94.27,400.35 C103.43,375.84 112.53,351.31 121.64,326.78 C101.52,326.17 81.31,336.38 70.43,353.46 C65.81,360.6 63,369.22 64.17,377.8 C65.29,395.9 74.64,412.95 88.59,424.35 C107.65,440.13 132.64,446.57 156.86,448.38 C176.88,449.76 197.4,448.57 216.52,442.09 C233.76,436.52 249.7,426.25 260.89,411.86 C275.55,393.32 281.28,368.83 279.61,345.5 C277.98,327.63 273.67,310.15 270.42,292.53 C266.63,272.68 263.5,252.59 263.5,232.32 C247.48,238.51 230.69,242.6 213.61,244.4 M148.2,122.11 C143.45,132.67 142.92,145.31 148.06,155.82 C153.63,167.44 162.47,178.24 174.42,183.54 C176.85,177.99 178.85,172.26 181.06,166.61 C184.42,157.62 188.52,148.74 189.66,139.1 C190.81,131.11 189.59,122.28 184.35,115.87 C178.91,109.39 169.4,106.83 161.41,109.52 C155.37,111.43 150.79,116.46 148.2,122.1 M163.89,48.99 L178.17,48.99 C192.36,50.18 206.56,54.12 218.43,62.21 C232.69,71.58 242.82,86.61 247.07,103.09 C252.37,123.6 250.15,145.68 242.66,165.35 C240.22,172.31 237.69,179.25 235.22,186.19 C246.73,183.17 258,177.87 266.21,169.03 C275.1,159.96 279.62,147.71 282.52,135.57 C303.45,135.46 324.37,135.55 345.29,135.53 C334.48,164.26 326.51,194.62 327.05,225.56 C327.25,261.25 340.27,295.13 343.82,330.43 C346.44,354.3 345.7,378.86 338.85,402.01 C332.57,423.66 321.11,443.83 305.44,460 C289.74,476.44 270.11,488.85 249.01,497.05 C221.94,507.6 192.63,511.61 163.71,511.01 C129.21,510.29 94.22,502.45 64.58,484.25 C38.98,468.75 17.86,445.14 7.35,416.88 C-3.23,388.83 -2.5,356.46 10.25,329.24 C20.12,307.95 37.86,290.74 58.89,280.58 C84.85,268.06 114.51,264.9 142.94,267.83 C146.91,257.51 150.79,247.17 154.84,236.88 C130.92,226.64 109.15,209.66 96.63,186.45 C77.46,151.59 81.8,104.4 109.3,75.14 C123.25,59.76 143.31,50.55 163.91,49.01" id="Shape" fill="#FFFFFF"></path>
                <path d="M313.95,112.76 C345.57,88.74 361.6,75.32 371.83,57.57 C386.22,32.59 377.5,11.39 359.27,3.11 C342.17,-4.66 321.87,2.63 313.95,19.4 C306.03,2.63 285.73,-4.67 268.63,3.11 C250.4,11.39 241.68,32.58 256.07,57.57 C266.3,75.33 282.34,88.74 313.95,112.76" id="Path" fill="#E32726"></path>
            </g>
            <g id="Group" transform="translate(415.000000, 315.000000)" fill="#FFFFFF">
                <polygon id="Path" points="0.94 1.86 67.78 1.86 67.78 19.42 20.25 19.42 20.25 38.11 62.13 38.11 62.13 55.67 20.25 55.67 20.25 89.65 0.94 89.65"></polygon>
                <path d="M79.33,46 L79.33,45.75 C79.33,20.79 99.02,0.35 126.11,0.35 C153.2,0.35 172.64,20.54 172.64,45.5 L172.64,45.75 C172.64,70.7 152.95,91.15 125.86,91.15 C98.77,91.15 79.33,70.96 79.33,46 L79.33,46 Z M152.44,46 L152.44,45.75 C152.44,30.7 141.41,18.16 125.85,18.16 C110.29,18.16 99.51,30.45 99.51,45.5 L99.51,45.75 C99.51,60.8 110.55,73.34 126.1,73.34 C141.65,73.34 152.44,61.05 152.44,46 Z" id="Shape"></path>
                <path d="M185.94,46 L185.94,45.75 C185.94,20.79 205.63,0.35 232.72,0.35 C259.81,0.35 279.25,20.54 279.25,45.5 L279.25,45.75 C279.25,70.7 259.56,91.15 232.47,91.15 C205.38,91.15 185.95,70.96 185.95,46 L185.94,46 Z M259.05,46 L259.05,45.75 C259.05,30.7 248.01,18.16 232.46,18.16 C216.91,18.16 206.12,30.45 206.12,45.5 L206.12,45.75 C206.12,60.8 217.16,73.34 232.71,73.34 C248.26,73.34 259.05,61.05 259.05,46 Z" id="Shape"></path>
                <path d="M296.43,1.86 L330.67,1.86 C358.26,1.86 377.32,20.8 377.32,45.5 L377.32,45.75 C377.32,70.46 358.26,89.64 330.67,89.64 L296.43,89.64 L296.43,1.85 L296.43,1.86 Z M315.74,19.29 L315.74,72.21 L330.66,72.21 C346.46,72.21 357.12,61.55 357.12,46 L357.12,45.75 C357.12,30.2 346.46,19.29 330.66,19.29 L315.74,19.29 L315.74,19.29 Z" id="Shape"></path>
                <path d="M387.23,76.85 L398.64,63.18 C406.54,69.7 414.82,73.84 424.85,73.84 C432.75,73.84 437.52,70.7 437.52,65.56 L437.52,65.31 C437.52,60.42 434.51,57.91 419.84,54.15 C402.16,49.64 390.75,44.74 390.75,27.31 L390.75,27.06 C390.75,11.13 403.54,0.6 421.47,0.6 C434.26,0.6 445.17,4.61 454.08,11.76 L444.05,26.31 C436.27,20.92 428.62,17.66 421.23,17.66 C413.84,17.66 409.94,21.05 409.94,25.31 L409.94,25.56 C409.94,31.33 413.7,33.21 428.88,37.1 C446.69,41.74 456.72,48.13 456.72,63.43 L456.72,63.68 C456.72,81.11 443.43,90.89 424.49,90.89 C411.2,90.89 397.78,86.25 387.24,76.84 L387.23,76.85 Z" id="Path"></path>
                <polygon id="Path" points="473.52 1.86 539.74 1.86 539.74 19.04 492.71 19.04 492.71 36.85 534.09 36.85 534.09 54.03 492.71 54.03 492.71 72.47 540.37 72.47 540.37 89.65 473.53 89.65 473.53 1.86"></polygon>
                <path d="M557.55,1.86 L597.68,1.86 C608.84,1.86 617.49,5 623.26,10.77 C628.15,15.66 630.78,22.56 630.78,30.84 L630.78,31.09 C630.78,45.26 623.13,54.16 611.97,58.3 L633.41,89.65 L610.84,89.65 L592.03,61.56 L576.86,61.56 L576.86,89.65 L557.55,89.65 L557.55,1.86 L557.55,1.86 Z M596.42,44.5 C605.83,44.5 611.22,39.49 611.22,32.09 L611.22,31.84 C611.22,23.57 605.45,19.3 596.05,19.3 L576.86,19.3 L576.86,44.51 L596.42,44.51 L596.42,44.5 Z" id="Shape"></path>
                <polygon id="Path" points="638.2 1.86 659.52 1.86 682.47 63.69 705.42 1.86 726.24 1.86 690.75 90.27 673.69 90.27"></polygon>
                <polygon id="Path" points="737.53 1.86 756.84 1.86 756.84 89.65 737.53 89.65"></polygon>
                <path d="M773.65,46 L773.65,45.75 C773.65,20.79 792.46,0.35 819.42,0.35 C835.97,0.35 845.88,5.87 854.03,13.89 L841.74,28.06 C834.97,21.91 828.07,18.15 819.29,18.15 C804.49,18.15 793.83,30.44 793.83,45.49 L793.83,45.74 C793.83,60.79 804.24,73.33 819.29,73.33 C829.32,73.33 835.47,69.32 842.36,63.05 L854.65,75.46 C845.62,85.12 835.59,91.14 818.66,91.14 C792.83,91.14 773.64,71.2 773.64,45.99 L773.65,46 Z" id="Path"></path>
                <polygon id="Path" points="868.84 1.86 935.06 1.86 935.06 19.04 888.03 19.04 888.03 36.85 929.41 36.85 929.41 54.03 888.03 54.03 888.03 72.47 935.69 72.47 935.69 89.65 868.85 89.65 868.85 1.86"></polygon>
            </g>
            <g id="Group">
                <path d="M213.62,244.41 C208.92,257.41 203.82,270.29 199.26,283.35 C213.67,290.14 228.6,297.13 239.93,308.71 C232.82,326.83 225.71,344.94 218.32,362.94 C207.13,351.87 194.1,342.48 179.38,336.76 C171.41,357.92 163.59,379.13 155.75,400.34 C135.26,400.38 114.77,400.37 94.27,400.35 C103.43,375.84 112.53,351.31 121.64,326.78 C101.52,326.17 81.31,336.38 70.43,353.46 C65.81,360.6 63,369.22 64.17,377.8 C65.29,395.9 74.64,412.95 88.59,424.35 C107.65,440.13 132.64,446.57 156.86,448.38 C176.88,449.76 197.4,448.57 216.52,442.09 C233.76,436.52 249.7,426.25 260.89,411.86 C275.55,393.32 281.28,368.83 279.61,345.5 C277.98,327.63 273.67,310.15 270.42,292.53 C266.63,272.68 263.5,252.59 263.5,232.32 C247.48,238.51 230.69,242.6 213.61,244.4 M148.2,122.11 C143.45,132.67 142.92,145.31 148.06,155.82 C153.63,167.44 162.47,178.24 174.42,183.54 C176.85,177.99 178.85,172.26 181.06,166.61 C184.42,157.62 188.52,148.74 189.66,139.1 C190.81,131.11 189.59,122.28 184.35,115.87 C178.91,109.39 169.4,106.83 161.41,109.52 C155.37,111.43 150.79,116.46 148.2,122.1 M163.89,48.99 L178.17,48.99 C192.36,50.18 206.56,54.12 218.43,62.21 C232.69,71.58 242.82,86.61 247.07,103.09 C252.37,123.6 250.15,145.68 242.66,165.35 C240.22,172.31 237.69,179.25 235.22,186.19 C246.73,183.17 258,177.87 266.21,169.03 C275.1,159.96 279.62,147.71 282.52,135.57 C303.45,135.46 324.37,135.55 345.29,135.53 C334.48,164.26 326.51,194.62 327.05,225.56 C327.25,261.25 340.27,295.13 343.82,330.43 C346.44,354.3 345.7,378.86 338.85,402.01 C332.57,423.66 321.11,443.83 305.44,460 C289.74,476.44 270.11,488.85 249.01,497.05 C221.94,507.6 192.63,511.61 163.71,511.01 C129.21,510.29 94.22,502.45 64.58,484.25 C38.98,468.75 17.86,445.14 7.35,416.88 C-3.23,388.83 -2.5,356.46 10.25,329.24 C20.12,307.95 37.86,290.74 58.89,280.58 C84.85,268.06 114.51,264.9 142.94,267.83 C146.91,257.51 150.79,247.17 154.84,236.88 C130.92,226.64 109.15,209.66 96.63,186.45 C77.46,151.59 81.8,104.4 109.3,75.14 C123.25,59.76 143.31,50.55 163.91,49.01" id="Shape" fill="#FFFFFF"></path>
                <path d="M313.95,112.76 C345.57,88.74 361.6,75.32 371.83,57.57 C386.22,32.59 377.5,11.39 359.27,3.11 C342.17,-4.66 321.87,2.63 313.95,19.4 C306.03,2.63 285.73,-4.67 268.63,3.11 C250.4,11.39 241.68,32.58 256.07,57.57 C266.3,75.33 282.34,88.74 313.95,112.76" id="Path" fill="#E32726"></path>
            </g>
            <g id="Group" transform="translate(412.000000, 214.000000)" fill="#FFFFFF">
                <path d="M0.39,32.44 L0.39,32.27 C0.39,15.49 13.46,1.75 31.34,1.75 C41.88,1.75 48.46,4.62 54.53,9.84 L46.35,19.71 C41.88,15.92 37.66,13.72 30.92,13.72 C21.48,13.72 13.97,22.07 13.97,32.1 L13.97,32.27 C13.97,43.06 21.39,50.99 31.85,50.99 C36.66,50.99 40.79,49.81 44.08,47.45 L44.08,39.02 L31.01,39.02 L31.01,27.81 L56.64,27.81 L56.64,53.44 C50.57,58.58 42.22,62.8 31.43,62.8 C13.05,62.8 0.4,49.98 0.4,32.45 L0.39,32.44 Z" id="Path"></path>
                <path d="M65.57,39.44 L65.57,39.27 C65.57,26.37 74.76,15.75 87.91,15.75 C103,15.75 109.92,27.47 109.92,40.29 C109.92,41.3 109.84,42.4 109.75,43.66 L78.3,43.66 C79.56,49.48 83.61,52.51 89.35,52.51 C93.65,52.51 96.69,51.16 100.31,47.87 L107.65,54.36 C103.35,59.67 97.36,62.79 89.18,62.79 C75.6,62.79 65.57,53.26 65.57,39.43 L65.57,39.44 Z M97.44,35.65 C96.68,29.92 93.31,26.04 87.91,26.04 C82.51,26.04 79.14,29.83 78.13,35.65 L97.44,35.65 L97.44,35.65 Z" id="Shape"></path>
                <path d="M119.46,16.59 L132.28,16.59 L132.28,23 C135.23,19.21 139.11,15.75 145.52,15.75 C155.3,15.75 160.87,22.07 160.87,32.53 L160.87,61.79 L148.05,61.79 L148.05,36.58 C148.05,30.51 145.27,27.39 140.29,27.39 C135.31,27.39 132.28,30.51 132.28,36.58 L132.28,61.79 L119.46,61.79 L119.46,16.59 L119.46,16.59 Z" id="Path"></path>
                <path d="M169.8,39.44 L169.8,39.27 C169.8,26.37 178.99,15.75 192.14,15.75 C207.23,15.75 214.15,27.47 214.15,40.29 C214.15,41.3 214.07,42.4 213.98,43.66 L182.53,43.66 C183.79,49.48 187.84,52.51 193.58,52.51 C197.88,52.51 200.92,51.16 204.54,47.87 L211.88,54.36 C207.58,59.67 201.59,62.79 193.41,62.79 C179.83,62.79 169.8,53.26 169.8,39.43 L169.8,39.44 Z M201.67,35.65 C200.91,29.92 197.54,26.04 192.14,26.04 C186.74,26.04 183.37,29.83 182.36,35.65 L201.67,35.65 L201.67,35.65 Z" id="Shape"></path>
                <path d="M223.68,16.59 L236.5,16.59 L236.5,25.7 C239.11,19.54 243.25,15.41 250.92,15.75 L250.92,29.16 L250.25,29.16 C241.73,29.16 236.51,34.22 236.51,45.1 L236.51,61.8 L223.69,61.8 L223.69,16.6 L223.68,16.59 Z" id="Path"></path>
                <path d="M254.12,48.8 L254.12,48.63 C254.12,38.85 261.62,34.21 272.33,34.21 C276.97,34.21 280.09,34.97 283.38,36.06 L283.38,35.3 C283.38,29.9 280.09,27.04 273.68,27.04 C268.71,27.04 265.33,27.88 261.2,29.49 L258,19.71 C262.97,17.6 267.87,16.08 275.54,16.08 C282.62,16.08 287.51,17.85 290.8,21.14 C294.17,24.51 295.69,29.49 295.69,35.56 L295.69,61.78 L283.29,61.78 L283.29,56.89 C280.17,60.35 275.95,62.62 269.63,62.62 C261.11,62.62 254.11,57.81 254.11,48.79 L254.12,48.8 Z M283.55,45.85 L283.55,43.57 C281.27,42.56 278.49,41.88 275.37,41.88 C269.89,41.88 266.52,44.07 266.52,48.12 L266.52,48.29 C266.52,51.75 269.39,53.77 273.52,53.77 C279.59,53.77 283.55,50.57 283.55,45.84 L283.55,45.85 Z" id="Shape"></path>
                <polygon id="Path" points="307.33 0.23 320.15 0.23 320.15 61.78 307.33 61.78 307.33 0.23"></polygon>
                <polygon id="Path" points="358.85 2.76 372.85 2.76 388.36 27.72 403.87 2.76 417.87 2.76 417.87 61.78 404.97 61.78 404.97 23.25 388.36 48.46 388.02 48.46 371.58 23.5 371.58 61.78 358.85 61.78 358.85 2.76"></polygon>
                <path d="M430.95,0.23 L444.44,0.23 L444.44,11.61 L430.95,11.61 L430.95,0.23 Z M431.29,16.59 L444.11,16.59 L444.11,61.79 L431.29,61.79 L431.29,16.59 Z" id="Shape"></path>
                <polygon id="Path" points="456.75 0.23 469.57 0.23 469.57 61.78 456.75 61.78 456.75 0.23"></polygon>
                <polygon id="Path" points="482.21 0.23 495.03 0.23 495.03 61.78 482.21 61.78 482.21 0.23"></polygon>
                <path d="M503.55,55.8 L509.03,47.37 C514.01,51 518.98,52.77 523.28,52.77 C526.99,52.77 528.68,51.42 528.68,49.4 L528.68,49.23 C528.68,46.45 524.3,45.6 519.32,44 C513,42.23 505.83,39.19 505.83,30.42 L505.83,30.25 C505.83,21.06 513.25,15.92 522.36,15.92 C528.09,15.92 534.25,17.86 539.22,21.15 L534.33,30 C529.86,27.39 525.39,25.78 522.1,25.78 C518.81,25.78 517.38,27.13 517.38,28.9 L517.38,29.07 C517.38,31.43 521.68,32.95 526.57,34.47 C532.89,36.49 540.23,39.61 540.23,47.88 L540.23,48.05 C540.23,58.08 532.73,62.64 522.94,62.64 C516.53,62.64 509.62,60.53 503.55,55.81 L503.55,55.8 Z" id="Path"></path>
            </g>
        </g>
    </g>
</svg>